<svg width="24" height="24" viewBox="0 0 24 24" fill="none" xmlns="http://www.w3.org/2000/svg">
<mask id="mask0_101_19" style="mask-type:alpha" maskUnits="userSpaceOnUse" x="0" y="0" width="24" height="24">
<rect width="24" height="24" fill="#D9D9D9"/>
</mask>
<g mask="url(#mask0_101_19)">
<path d="M16.1443 7.80378L6.81153 17.1269C6.67306 17.2653 6.49903 17.333 6.28943 17.3298C6.07981 17.3266 5.90578 17.2557 5.76733 17.1173C5.62886 16.9788 5.55963 16.8064 5.55963 16.6C5.55963 16.3936 5.62886 16.2211 5.76733 16.0827L15.0904 6.74995H6.89423C6.68173 6.74995 6.50361 6.67805 6.35986 6.53425C6.21612 6.39043 6.14426 6.21223 6.14426 5.99965C6.14426 5.78705 6.21612 5.60896 6.35986 5.46538C6.50361 5.32179 6.68173 5.25 6.89423 5.25H16.7404C16.9965 5.25 17.2111 5.33662 17.3844 5.50985C17.5576 5.68308 17.6442 5.89774 17.6442 6.15383V16C17.6442 16.2125 17.5723 16.3906 17.4285 16.5343C17.2847 16.6781 17.1065 16.75 16.8939 16.75C16.6813 16.75 16.5032 16.6781 16.3596 16.5343C16.216 16.3906 16.1443 16.2125 16.1443 16V7.80378Z" fill="#272930"/>
</g>
</svg>
