<svg width="614" height="347" viewBox="0 0 614 347" fill="none" xmlns="http://www.w3.org/2000/svg">
<path d="M287.503 2.34375C272.903 2.34375 258.303 2.34375 243.703 2.34375C204.096 2.34375 166.186 16.8153 131.892 36.4593C76.2015 68.3599 21.9761 122.37 7.75565 187.008C-3.2856 237.196 0.266102 284.888 42.3114 319.288C68.4808 340.7 104.555 341.347 136.404 343.94C166.416 346.383 187.866 341.329 215.971 331.614C242.238 322.534 268.71 304.593 292.456 290.345C316.038 276.196 337.592 255.649 363.658 245.995C381.414 239.419 397.734 226.295 414.391 217.272C428.418 209.674 442.737 204.46 457.421 198.453C486.974 186.364 521.537 188.549 553.165 188.549C573.822 188.549 597.392 195.359 612.372 210.339" stroke="#F4F4F5" stroke-width="3" stroke-linecap="round" stroke-dasharray="6 6"/>
</svg>
