<svg width="694" height="469" viewBox="0 0 694 469" fill="none" xmlns="http://www.w3.org/2000/svg">
<path d="M1.9458 103.947C36.283 103.947 70.8957 102.248 104.865 107.983C160.895 117.442 215.227 137.169 271.099 148.343C326.776 159.478 381.142 166.721 437.837 170.289C482.084 173.074 528.275 178.845 572.413 172.055C628.171 163.476 694.758 119.78 692.107 57.0277C689.891 4.5867 571.937 -12.9987 540.125 16.5413C525.176 30.4221 514.376 42.6841 512.882 64.343C510.954 92.296 507.992 120.262 516.287 147.586C525.817 178.977 534.197 210.708 545.801 241.424C553.476 261.74 564.03 288.9 564.972 311.045C566.581 348.856 570.726 378.688 549.08 412.703C534.146 436.17 509.922 458.296 483.242 467.189" stroke="#F4F4F5" stroke-width="3" stroke-linecap="round" stroke-dasharray="6 6"/>
</svg>
